<?xml version="1.0" encoding="utf-8"?>
<!-- Generator: Adobe Illustrator 22.0.1, SVG Export Plug-In . SVG Version: 6.00 Build 0)  -->
<svg version="1.1" id="Layer_1" xmlns="http://www.w3.org/2000/svg" xmlns:xlink="http://www.w3.org/1999/xlink" x="0px" y="0px"
	 viewBox="0 0 80.7 79.3" style="enable-background:new 0 0 80.7 79.3;" xml:space="preserve">
<style type="text/css">
	.st0{fill-rule:evenodd;clip-rule:evenodd;fill:#9CA3A3;}
	.st1{opacity:0.64;}
	.st2{opacity:1.000000e-02;fill-rule:evenodd;clip-rule:evenodd;}
	.st3{fill-rule:evenodd;clip-rule:evenodd;fill:#D43629;}
	.st4{fill-rule:evenodd;clip-rule:evenodd;fill:#990000;}
	.st5{fill-rule:evenodd;clip-rule:evenodd;fill:#CCCCCC;}
	.st6{fill-rule:evenodd;clip-rule:evenodd;fill:#E3E3E3;}
	.st7{fill-rule:evenodd;clip-rule:evenodd;fill:#EFEFEF;}
	.st8{opacity:0.59;fill-rule:evenodd;clip-rule:evenodd;fill:url(#SVGID_1_);}
	.st9{fill-rule:evenodd;clip-rule:evenodd;fill:#CF6900;}
	.st10{fill-rule:evenodd;clip-rule:evenodd;fill:url(#SVGID_2_);}
	.st11{fill-rule:evenodd;clip-rule:evenodd;fill:#FF9900;}
	.st12{fill-rule:evenodd;clip-rule:evenodd;fill:url(#SVGID_3_);}
	.st13{fill-rule:evenodd;clip-rule:evenodd;fill:url(#SVGID_4_);}
	.st14{fill-rule:evenodd;clip-rule:evenodd;fill:#615959;}
	.st15{fill-rule:evenodd;clip-rule:evenodd;fill:url(#SVGID_5_);}
	.st16{fill-rule:evenodd;clip-rule:evenodd;fill:#4A4A4A;}
	.st17{fill-rule:evenodd;clip-rule:evenodd;fill:#333333;}
	.st18{fill-rule:evenodd;clip-rule:evenodd;fill:#B0B0B0;}
	.st19{fill-rule:evenodd;clip-rule:evenodd;fill:#A8420A;}
	.st20{opacity:0.53;fill-rule:evenodd;clip-rule:evenodd;fill:#7D7D7D;}
	.st21{fill-rule:evenodd;clip-rule:evenodd;fill:url(#SVGID_6_);}
	.st22{fill-rule:evenodd;clip-rule:evenodd;fill:#FCB800;}
	.st23{fill-rule:evenodd;clip-rule:evenodd;fill:#FFE066;}
	.st24{fill-rule:evenodd;clip-rule:evenodd;fill:#FFFFFF;}
	.st25{fill-rule:evenodd;clip-rule:evenodd;fill:#034A66;}
	.st26{fill-rule:evenodd;clip-rule:evenodd;fill:#FFF0AB;}
	.st27{fill-rule:evenodd;clip-rule:evenodd;fill:#EBF0F0;}
	.st28{opacity:0.41;fill-rule:evenodd;clip-rule:evenodd;fill:#008AB8;}
	.st29{fill-rule:evenodd;clip-rule:evenodd;fill:#EAEAEA;}
	.st30{opacity:0.58;fill-rule:evenodd;clip-rule:evenodd;fill:url(#SVGID_7_);}
	.st31{fill-rule:evenodd;clip-rule:evenodd;fill:#006E94;}
	.st32{fill-rule:evenodd;clip-rule:evenodd;fill:url(#SVGID_8_);}
	.st33{fill-rule:evenodd;clip-rule:evenodd;fill:#008AB8;}
	.st34{fill-rule:evenodd;clip-rule:evenodd;fill:url(#SVGID_9_);}
	.st35{fill-rule:evenodd;clip-rule:evenodd;fill:url(#SVGID_10_);}
	.st36{fill-rule:evenodd;clip-rule:evenodd;fill:url(#SVGID_11_);}
	.st37{fill-rule:evenodd;clip-rule:evenodd;fill:#005978;}
	.st38{fill-rule:evenodd;clip-rule:evenodd;fill:url(#SVGID_12_);}
	.st39{fill-rule:evenodd;clip-rule:evenodd;fill:#00B8FF;}
	.st40{fill-rule:evenodd;clip-rule:evenodd;fill:#00BDFF;}
	.st41{fill-rule:evenodd;clip-rule:evenodd;fill:#36A6A8;}
	.st42{fill-rule:evenodd;clip-rule:evenodd;fill:#FF5E40;}
	.st43{opacity:0.59;fill-rule:evenodd;clip-rule:evenodd;fill:url(#SVGID_13_);}
	.st44{fill-rule:evenodd;clip-rule:evenodd;fill:url(#SVGID_14_);}
	.st45{fill-rule:evenodd;clip-rule:evenodd;fill:url(#SVGID_15_);}
	.st46{fill-rule:evenodd;clip-rule:evenodd;fill:url(#SVGID_16_);}
	.st47{fill-rule:evenodd;clip-rule:evenodd;fill:url(#SVGID_17_);}
	.st48{fill-rule:evenodd;clip-rule:evenodd;fill:url(#SVGID_18_);}
</style>
<path class="st5" d="M32.5,58.1c6.9,3.4,13.2,8.5,17.3,17.2c0.9,0.3,1.8,0.1,2.6-0.2c3.5-1.5,5.9-3.1,6.8-5.2
	c-4-4.9-8-9.8-12.4-14.2l0.2-1.6l-4.5-4.7l-7.3,4.4L32,56.1L32.5,58.1z"/>
<path class="st6" d="M57.3,72.3c0.9-0.7,1.5-1.5,1.9-2.4c-4-4.9-8-9.8-12.4-14.2l0.2-1.6l-4.5-4.7l-3.7,2.2
	C45.6,58.1,52.1,64.7,57.3,72.3z"/>
<path class="st7" d="M45.9,5.4c-5,12.9-15.4,22.4-28.8,30c-5.3,3.1,0.3,18.5,7.8,19.2l4.4-1.5l-1-1.8c3-1.4,6-4,8.8-3.1
	c2.2,0.7,5.2,0.5,7.2-1.1c6.9-0.6,12.8,0.8,19.2,4C50.1,39,42.6,24.7,45.9,5.4z"/>
<linearGradient id="SVGID_1_" gradientUnits="userSpaceOnUse" x1="41.5917" y1="52.2918" x2="34.8508" y2="37.9938">
	<stop  offset="0" style="stop-color:#E3E3E3"/>
	<stop  offset="1" style="stop-color:#CCCCCC"/>
</linearGradient>
<path class="st8" d="M17,47.9c-0.3-0.5-0.5-1-0.7-1.6L16.2,46l32.4-14.5l1.2,2.5c3.2,6.3,7.9,11.9,13.7,17.2
	c-6.4-3.1-12.3-4.4-19.2-3.8c-2,1.6-5,1.8-7.2,1.1c-2.8-0.9-5.8,1.8-8.8,3.1l1,1.8L25,54.8C21.7,54.6,18.8,51.5,17,47.9z"/>
<path class="st9" d="M8.1,42.2C2.5,47.2,8.3,58,14.6,56.1L8.1,42.2z"/>
<linearGradient id="SVGID_2_" gradientUnits="userSpaceOnUse" x1="6.8565" y1="45.2253" x2="10.7515" y2="53.9241">
	<stop  offset="0" style="stop-color:#A8420A"/>
	<stop  offset="1" style="stop-color:#CF6900"/>
</linearGradient>
<path class="st10" d="M6.6,51.1c-0.1-0.2-0.2-0.4-0.2-0.6l-0.1-0.2l4.7-2.1l3.6,7.8C11.2,57.1,8,54.5,6.6,51.1z"/>
<path class="st11" d="M22.2,55.6c-7.8-5.9-9.3-12.4-7.6-19.1l-6.2,4.2l0,0c-3,3.2,1.3,13.8,6.1,16.4l0.4,0.2l0.8,0L22.2,55.6z"/>
<path class="st6" d="M47.2,4.5c-5.1,2.5-4.5,14.6,1.5,27c6,12.4,14.7,20.8,19.8,18.2c5.1-2.5,5.1-14.8-0.8-27.2
	C61.8,10.2,52.4,2,47.2,4.5z"/>
<linearGradient id="SVGID_3_" gradientUnits="userSpaceOnUse" x1="62.889" y1="46.4515" x2="59.5189" y2="29.6724">
	<stop  offset="0" style="stop-color:#E3E3E3"/>
	<stop  offset="1" style="stop-color:#CCCCCC"/>
</linearGradient>
<path class="st12" d="M48.6,31.4l19.2-8.6l1,2.1c4.9,11.5,4.6,22.5-0.2,24.9c-5.1,2.5-13.9-5.9-19.8-18.2L48.6,31.4z"/>
<path class="st11" d="M69.3,50.9c7-3.2,6.1-16.5-0.3-29.2C62.8,9.1,52.7,0.3,46.1,3.5c-6.6,3.2-5.9,16.6,0.3,29.2
	C52.6,45.3,62.7,54.1,69.3,50.9z M68.6,49.5C63.5,52,54,44.8,47.8,32c-6.2-12.8-6.1-24.6-1-27.1c5.1-2.5,14.5,4.7,20.8,17.5
	C73.8,35.2,73.7,47,68.6,49.5z"/>
<path class="st11" d="M51.7,37.3c-3.3-3.8-5.2-7.6-6.1-12.7l8.8-2.2c0.8-0.3,1.6-0.1,2.5,0.7c2.6,2.3,3.6,6.2,3.1,8.2
	c-0.3,1.3-0.9,1.5-1.7,1.8L51.7,37.3z"/>
<linearGradient id="SVGID_4_" gradientUnits="userSpaceOnUse" x1="52.7275" y1="27.0754" x2="55.8045" y2="33.9473">
	<stop  offset="0" style="stop-color:#CF6900"/>
	<stop  offset="1" style="stop-color:#FF9900"/>
</linearGradient>
<path class="st13" d="M48,31.7l11.4-5.1l0.3,0.7c0.5,1.5,0.6,3,0.4,4c-0.3,1.3-0.9,1.5-1.7,1.8l-6.7,4.1c-1.3-1.4-2.3-2.8-3.1-4.3
	L48,31.7z"/>
<path class="st6" d="M54.5,23.1c-1.3,0.6-1.4,3.2-0.2,5.7c1.2,2.6,3.2,4.2,4.4,3.6c1.3-0.6,1.4-3.2,0.2-5.7
	C57.7,24.1,55.7,22.5,54.5,23.1z"/>
<path class="st14" d="M55.2,23.8c-0.9,0.4-0.9,2.4,0,4.5c0.9,2,2.4,3.4,3.4,2.9c0.9-0.4,0.9-2.4,0-4.5
	C57.6,24.7,56.1,23.4,55.2,23.8z"/>
<linearGradient id="SVGID_5_" gradientUnits="userSpaceOnUse" x1="11.0863" y1="42.8488" x2="15.2873" y2="52.2378">
	<stop  offset="0" style="stop-color:#A8420A"/>
	<stop  offset="1" style="stop-color:#FF9900"/>
</linearGradient>
<path class="st15" d="M9.1,50.4l-0.5-1l6.3-2.8l0.4,1.1c1.3,2.8,3.4,5.5,6.9,8l-6.5,1.7l-0.8,0l-0.4-0.2
	C12.4,55.9,10.4,53.3,9.1,50.4z"/>
<path class="st16" d="M17.2,35.3c-5.5,3.2,0.8,19.7,8,19.3c-0.4,0.9-1.5,1.2-2.8,1.2c-4.8-1.8-11.3-12.7-7.7-19.5
	C16,35.2,16.6,35.2,17.2,35.3z"/>
<path class="st9" d="M70.9,51.3c6.6-3.2,5.8-16.8-0.4-29.8C64.2,8.7,54-0.3,47.4,2.9c-6.6,3.2-5.8,16.8,0.4,29.8
	C54.1,45.5,64.3,54.6,70.9,51.3z M70.2,49.9C65.1,52.4,55.6,45,49.3,32C42.9,18.9,43,6.9,48.1,4.3c5.1-2.5,14.6,4.9,20.9,17.9
	C75.4,35.3,75.3,47.4,70.2,49.9z"/>
<path class="st14" d="M9.7,41.2l2.5-1.5l0-0.1c0-0.2,0.1-0.4,0.1-0.6l0.1-0.3l-2.6,1.6l0,0.1C9.8,40.7,9.8,40.9,9.7,41.2L9.7,41.2z"
	/>
<path class="st14" d="M9.6,42.6l2.4-1.3l0-0.3c0-0.1,0-0.2,0-0.3l0-0.2L9.7,42l0,0.2c0,0.1,0,0.2,0,0.3V42.6z"/>
<path class="st14" d="M9.7,44.1l2.4-1.3l0-0.1c0-0.1,0-0.2,0-0.3l0-0.3l-2.4,1.3l0,0.2c0,0.1,0,0.2,0,0.3V44.1z"/>
<path class="st14" d="M19,55.3l-0.2-0.2c-0.1-0.1-0.2-0.1-0.3-0.2l-0.1-0.1l-2.5,1l0.1,0.1c0.1,0.1,0.2,0.1,0.3,0.2l0.2,0.1L19,55.3
	z"/>
<path class="st14" d="M17.8,54.3L17.8,54.3c-0.2-0.1-0.2-0.2-0.3-0.3l-0.2-0.2l-2.4,1.1l0.1,0.1c0.1,0.1,0.2,0.1,0.2,0.2l0.1,0.1
	L17.8,54.3z"/>
<path class="st14" d="M16.9,53.3l-0.1-0.1c-0.1-0.1-0.1-0.2-0.2-0.3l-0.1-0.1L14,53.9l0.1,0.2c0.1,0.1,0.1,0.2,0.2,0.3l0,0
	L16.9,53.3z"/>
<path class="st11" d="M44.3,47.2c-3.9,1.3-6.8,0.8-9-0.2l-14.2,6.2c0.7,0.5,1.9,1.3,3,1.6c1,0.5,1.6,0.4,2.3,0.1l10.1-4.1
	c2.8,0.6,5,0.3,6.3-0.9C43.6,49.2,44.1,48.3,44.3,47.2z"/>
<path class="st9" d="M26.5,54.8l4.9,4.9l6.9-6.6c1.8-0.6,3.1-1.6,4.2-2.7c-1.9,0.4-4.3,1-6.5,0.3L26.5,54.8z"/>
<path class="st17" d="M42,50.7c1.2,2.4,2.5,3.9,4.1,4.7l1.3-1.5c-1.8-1.3-3.2-2.7-4.2-4.4L42,50.7z"/>
<path class="st5" d="M46.1,55.2l0.2,1c-1.9-0.8-3.6-2.4-4.8-5l0.5-0.6C42.9,52.4,44.1,54.1,46.1,55.2z"/>
<polygon class="st18" points="46.3,56.2 47.7,54.7 47.5,53.7 46.1,55.3 "/>
<path class="st6" d="M46.2,55.4l1.3-1.5l0-0.2c-1.8-1.2-3.2-2.7-4.2-4.3l-0.1-0.1L42,50.6l0,0.2c1.2,2.4,2.6,4,4.1,4.7L46.2,55.4z
	 M46.1,55.2l-0.2-0.1c-1.3-0.7-2.4-2-3.5-4l-0.2-0.4l0.9-1l0.1,0.2c0.9,1.5,2.2,2.7,3.7,3.9l0.2,0.1L46.1,55.2z"/>
<path class="st19" d="M46.3,51.8c0.1,0.9,0.1,1.8-0.7,2.6c-1.4-1-2.4-2.3-3.3-3.8l0.2-0.4C43.6,51.6,44.8,52.3,46.3,51.8z"/>
<path class="st9" d="M47,51.1c0,0.9-0.1,1.8-0.8,2.8l-0.6,0.5c0.6-0.7,0.8-1.6,0.7-2.6L47,51.1z"/>
<path class="st20" d="M36.3,60.2l-1.3-0.7l-1-0.6l0.8-1.1c1.2-1.5,2.5-3,4-4.5c0.8-0.6,1.5-1.5,2.5-1.9l0.1-0.1
	c0.2,0.5,0.5,1,0.8,1.4c-0.8,0.4-1.6,1-2.1,2L36.3,60.2z"/>
<path class="st19" d="M30.8,58.9c0.5,0.9,1.4,1.3,3.4,0c1.3-2.2,3.6-4.6,6.1-6.9c0.5-0.3,1.1-0.8,1.6-1.3
	C38.2,52.5,34.3,55.8,30.8,58.9z"/>
<linearGradient id="SVGID_6_" gradientUnits="userSpaceOnUse" x1="49.0774" y1="53.015" x2="42.3733" y2="49.933">
	<stop  offset="0" style="stop-color:#FCB800"/>
	<stop  offset="1" style="stop-color:#CF6900"/>
</linearGradient>
<path class="st21" d="M42.6,50.2c0.9,1.3,2,2,3.7,1.6l0.8-0.7c-2,0.3-3.3-0.2-3.9-1.6L42.6,50.2z"/>
<path class="st11" d="M52.4,75.1c-0.8,0.3-1.7,0.5-2.6,0.2l-0.6-1.2l0.4,0.1c0.7,0.1,1.3-0.1,1.9-0.4c3.1-1.3,5.3-2.7,6.4-4.4
	l0.3-0.6l0.9,1.1C58.3,72,55.8,73.6,52.4,75.1z"/>
</svg>
