<svg xmlns="http://www.w3.org/2000/svg" viewBox="0 0 428 386">
  <path style="stroke:#000;stroke-width:6;stroke-miterlimit:10" d="M415.6 154.4l-195.3-143c-3.8-2.8-8.9-2.8-12.6 0l-195.3 143c-4.8 3.5-5.8 10.2-2.3 15s10.2 5.8 15 2.3L214 33.3l189 138.4c1.9 1.4 4.1 2.1 6.3 2.1 3.3 0 6.5-1.5 8.6-4.4 3.5-4.8 2.5-11.5-2.3-15z"/>
  <path style="stroke:#000;stroke-width:6;stroke-miterlimit:10"  d="M363.9 174.1c-5.9 0-10.7 4.8-10.7 10.7v170.4h-85.6v-93c0-29.5-24-53.5-53.5-53.5s-53.5 24-53.5 53.5v93H74.8V184.8c0-5.9-4.8-10.7-10.7-10.7s-10.7 4.8-10.7 10.7v181.1c0 5.9 4.8 10.7 10.7 10.7h107c5.6 0 10.2-4.3 10.7-9.9V262.2c0-17.7 14.4-32.1 32.1-32.1s32.1 14.4 32.1 32.1v104.5c.4 5.5 5 9.9 10.7 9.9h107c5.9 0 10.7-4.8 10.7-10.7V184.8c.2-5.9-4.6-10.7-10.5-10.7z"/>
</svg>
