<svg id="圖層_1" xmlns="http://www.w3.org/2000/svg" viewBox="0 0 428 386">
  <style>
  </style>
  <path d="M210.6 149.9c-4.5-4.5-11.9-4.6-16.5 0l-38.2 38.3-15-15c-4.5-4.5-11.9-4.5-16.4 0s-4.5 11.9 0 16.4l23.2 23.2c2.3 2.3 5.2 3.4 8.2 3.4 3 0 5.9-1.1 8.2-3.4l46.5-46.5c4.5-4.5 4.5-11.8 0-16.4zM210.6 242.9c-4.5-4.5-11.9-4.6-16.5 0l-38.2 38.3-15-15c-4.5-4.5-11.9-4.5-16.4 0s-4.5 11.9 0 16.4l23.2 23.2c2.3 2.3 5.2 3.4 8.2 3.4 3 0 5.9-1.1 8.2-3.4l46.5-46.5c4.5-4.5 4.5-11.9 0-16.4zM295.3 169.8h-46.5c-6.4 0-11.6 5.2-11.6 11.6 0 6.4 5.2 11.6 11.6 11.6h46.5c6.4 0 11.6-5.2 11.6-11.6.1-6.4-5.2-11.6-11.6-11.6zM295.3 262.7h-46.5c-6.4 0-11.6 5.2-11.6 11.6 0 6.4 5.2 11.6 11.6 11.6h46.5c6.4 0 11.6-5.2 11.6-11.6.1-6.4-5.2-11.6-11.6-11.6z"/>
  <path d="M330.2 53.6h-46.5V42c0-6.4-5.2-11.6-11.6-11.6h-25.2C242.1 16.8 229.2 7.1 214 7.1s-28.1 9.7-32.9 23.2h-25.2c-6.4 0-11.6 5.2-11.6 11.6v11.6H97.8C85 53.6 74.6 64 74.6 76.8v278.9c0 12.8 10.4 23.2 23.2 23.2h232.4c12.8 0 23.2-10.4 23.2-23.2V76.8c0-12.8-10.4-23.2-23.2-23.2zm-162.7 0h23.2c6.4 0 11.6-5.2 11.6-11.6s5.2-11.6 11.6-11.6 11.6 5.2 11.6 11.6 5.2 11.6 11.6 11.6h23.2v23.2h-93V53.6zm162.7 302.1H97.8V76.8h46.5v11.6c0 6.4 5.2 11.6 11.6 11.6h116.2c6.4 0 11.6-5.2 11.6-11.6V76.8h46.5v278.9z"/>
</svg>
