<svg xmlns="http://www.w3.org/2000/svg" viewBox="0 0 428 386">
  <path d="M371.2 299.1v-2.8c-.5-16.1-1.7-53.7-38.2-66.4-.2-.1-.5-.2-.7-.2l-.2-.1-.9-.1c-29.4-7.5-54.1-23.5-59.1-26.9l-.3-.3c-4.1-2.9-9.2-3.6-13.8-2.5 4.3-3.1 8.4-6.8 12-10.9 29.2-32.9 26.1-87.6 25.2-98.2-2-42.9-22.7-63.5-39.6-73.2C242.9 10.2 228.3 6.3 212 6h-1.3c-9 0-26.6 1.5-43.5 11.2C150 27 129 47.8 127 90.7c-.6 6.5-4.9 64.4 25.2 98.2 3.6 4.1 7.5 7.7 11.8 10.8-.2 0-.4-.1-.7-.2-4.6-.8-9.2.3-12.8 3-.3.2-27 18.9-59.3 27-.4.1-.6.1-.9.2l-.5.1c-37.3 12.8-38.1 52-38.4 66.7v2.6c0 16.7 1.4 28.8 4.2 35.9 1.2 3.4 3.6 6.2 6.7 8.2 1.6 1 15.3 9.7 40 18.5 23.3 8.3 61.1 18.2 109.2 18.2 89.1 0 143.3-33 149.2-36.8 3.1-2.1 5.3-4.8 6.7-8.1 3.7-10.3 3.9-28.5 3.8-35.9zM161 93.4v-.1c0-.2.1-.5.1-.6 2.1-45.6 31.9-52.4 49.5-52.4h.8c21.6.5 47.7 9.9 49.6 52.2 0 .3 0 .9.1 1.6.2 2 4.1 48.5-16.6 72.1-8 9-18.8 13.4-33.1 13.5h-.7c-14.2-.1-25-4.5-33-13.5-21.4-24.2-16.9-71-16.7-72.3v-.5zM209.8 214h2.7c13.6-.2 25.8-3.1 36.4-8.5-.3.3-.6.7-.8 1-2.6 3.7-3.6 8.3-2.9 12.8.8 4.5 3.3 8.4 7.1 11.2 5.3 3.7 33.5 22.5 69.9 32 12.8 4.8 14.4 19.9 14.9 35 0 .6 0 1.4.1 2.2.1 4.8-.2 12.3-.9 18-13.2 7.1-58.3 28.1-124.9 28.1-64.4 0-108.4-19.3-125-28.1-.7-5.8-1-13.5-.9-18.4v-1.7c.5-15.1 2-30.3 14.9-35.1 34.2-8.9 61.9-26.6 69.6-31.8l.4-.4c3.7-2.6 6.1-6.5 6.9-11 .8-4.6-.2-9.1-2.8-12.8-.2-.3-.5-.6-.7-.9 10.4 5.4 22.4 8.2 36 8.4z"/>
</svg>
