<svg  xmlns="http://www.w3.org/2000/svg" viewBox="0 0 428 386">
  <path d="M182.2 171.1c-12.7-12.7-33.3-12.7-45.9 0-6.1 6.1-9.5 14.3-9.5 23s3.4 16.8 9.5 23c6.1 6.1 14.3 9.5 23 9.5s16.8-3.4 23-9.5c12.6-12.8 12.6-33.4-.1-46zm-16.4 29.5c-1.7 1.7-4.1 2.7-6.5 2.7-2.5 0-4.8-1-6.5-2.7-1.7-1.7-2.7-4.1-2.7-6.5 0-2.5 1-4.8 2.7-6.5 1.8-1.8 4.2-2.7 6.5-2.7s4.7.9 6.5 2.7c3.6 3.5 3.6 9.4 0 13zM291.8 169.1c-12.7-12.7-33.3-12.7-45.9 0-6.1 6.1-9.5 14.3-9.5 23s3.4 16.8 9.5 23c6.3 6.3 14.7 9.5 23 9.5s16.6-3.2 23-9.5c6.1-6.1 9.5-14.3 9.5-23s-3.4-16.8-9.6-23zm-16.4 29.5c-3.6 3.6-9.5 3.6-13.1 0-1.7-1.7-2.7-4.1-2.7-6.5 0-2.5 1-4.8 2.7-6.5 3.6-3.6 9.5-3.6 13.1 0 1.7 1.7 2.7 4.1 2.7 6.5 0 2.5-.9 4.8-2.7 6.5z"/>
  <path transform="rotate(-6.09 214.0013 192.9848)" d="M202.4 115.2h23.2v155.6h-23.2z"/>
  <path d="M365 140.2c4-12.1 4.9-25 2.6-37.7-2.7-15.8-10.2-30.2-21.6-41.5s-25.7-18.8-41.5-21.6c-12.7-2.2-25.6-1.3-37.7 2.6l-32-32L31 213.8l32 32c-4 12.1-4.9 25-2.6 37.7 2.8 15.8 10.2 30.1 21.6 41.5s25.7 18.8 41.5 21.6c12.7 2.2 25.6 1.3 37.7-2.6l32 32L397 172.2l-32-32zM193.2 343.1l-26.5-26.5-7.3 3.3c-20.5 9.2-45 4.7-60.9-11.2-15.9-15.9-20.4-40.4-11.2-60.9l3.3-7.3L64.1 214l171-170.9 26.5 26.5 7.3-3.3c20.5-9.2 45-4.7 60.9 11.2 15.9 15.9 20.4 40.4 11.2 60.9l-3.3 7.3 26.5 26.5-171 170.9z"/>
</svg>
